<svg id="Layer_1" data-name="Layer 1" xmlns="http://www.w3.org/2000/svg" viewBox="0 0 266.36 42.75"><defs><style>.cls-1{fill:#239a5c;}</style></defs><title>easelogo</title><path class="cls-1" d="M46.59,62.29H26.5l-1,8.87H44.78v7.25H24.5l-2,10.73H47.61v7.51H12L19,54.9H46.59Z" transform="translate(-11.98 -54.9)"/><path class="cls-1" d="M65.22,57.78h9.19L88.16,96.65H79.35l-2.56-8H62.47l-2.63,8h-8.5ZM64.68,82h10L69.73,66.67Z" transform="translate(-11.98 -54.9)"/><path class="cls-1" d="M99,84.65a8,8,0,0,0,1.48,4q2,2.4,6.92,2.4a15,15,0,0,0,4.77-.63c2.31-.81,3.47-2.32,3.47-4.51a3.32,3.32,0,0,0-1.7-3,18.31,18.31,0,0,0-5.4-1.82l-4.2-.92q-6.21-1.38-8.53-3-3.93-2.7-3.93-8.41a11.18,11.18,0,0,1,3.85-8.68q3.84-3.45,11.29-3.45a17.33,17.33,0,0,1,10.61,3.25q4.4,3.26,4.6,9.46h-7.8a5.58,5.58,0,0,0-3.14-5,10.76,10.76,0,0,0-4.84-1,9.23,9.23,0,0,0-5.13,1.26,4,4,0,0,0-1.92,3.54,3.34,3.34,0,0,0,1.89,3.11,24.14,24.14,0,0,0,5.16,1.61l6.83,1.6A17.62,17.62,0,0,1,120,77.34q3.47,2.75,3.47,7.94a11.15,11.15,0,0,1-4.12,8.85q-4.11,3.51-11.63,3.52-7.68,0-12.07-3.47a11.48,11.48,0,0,1-4.4-9.53Z" transform="translate(-11.98 -54.9)"/><path class="cls-1" d="M157.86,64.66H137.29v8.26h18.88v6.75H137.29v10h21.52v7H129.35V57.78h28.51Z" transform="translate(-11.98 -54.9)"/><path class="cls-1" d="M175.38,74.39v3.46H163V74.39Z" transform="translate(-11.98 -54.9)"/><path class="cls-1" d="M188.6,57.78h9.19l13.75,38.87h-8.81l-2.57-8H185.85l-2.63,8h-8.5ZM188.06,82H198l-4.9-15.29Z" transform="translate(-11.98 -54.9)"/><path class="cls-1" d="M214.48,57.78h8.12l2,31.88H244v7H216.48Z" transform="translate(-11.98 -54.9)"/><path class="cls-1" d="M242.77,54.9h8.72l6,34.24h20.85v7.51H248.77Z" transform="translate(-11.98 -54.9)"/></svg>