<svg xmlns="http://www.w3.org/2000/svg" viewBox="0 0 254.62 267.25"><defs><style>.cls-1{fill:#fff;stroke:#231f20;}.cls-1,.cls-2,.cls-3,.cls-4,.cls-5,.cls-6{stroke-miterlimit:10;}.cls-2,.cls-3,.cls-4,.cls-5,.cls-6{fill:none;}.cls-2{stroke:#fff;}.cls-3,.cls-4,.cls-5,.cls-6{stroke:#259a5c;}.cls-4{stroke-width:0.96px;}.cls-5{stroke-width:0.98px;}.cls-6{stroke-width:2.54px;}</style></defs><title>main-template</title><g id="desktop"><rect class="cls-1" x="0.5" y="193.07" width="184.79" height="73.67" rx="7.76"/><rect class="cls-1" x="33.67" y="200.34" width="20.14" height="5.3" rx="1.68"/><rect class="cls-1" x="9.47" y="200.34" width="20.14" height="5.3" rx="1.68"/><rect class="cls-1" x="57.86" y="200.34" width="20.14" height="5.3" rx="1.68"/><rect class="cls-1" x="82.06" y="200.34" width="20.14" height="5.3" rx="1.68"/><rect class="cls-1" x="106.26" y="200.34" width="20.14" height="5.3" rx="1.68"/><rect class="cls-1" x="130.46" y="200.34" width="20.14" height="5.3" rx="1.68"/><rect class="cls-1" x="154.66" y="200.34" width="20.14" height="5.3" rx="1.68"/><rect class="cls-1" x="10.08" y="209.77" width="17.17" height="8.78" rx="2.71"/><rect class="cls-1" x="33.13" y="209.77" width="12.71" height="8.78" rx="2.71"/><rect class="cls-1" x="51.73" y="209.77" width="12.71" height="8.78" rx="2.71"/><rect class="cls-1" x="88.92" y="209.77" width="12.71" height="8.78" rx="2.71"/><rect class="cls-1" x="107.51" y="209.77" width="12.71" height="8.78" rx="2.71"/><rect class="cls-1" x="126.11" y="209.77" width="12.71" height="8.78" rx="2.71"/><rect class="cls-1" x="70.32" y="209.77" width="12.71" height="8.78" rx="2.71"/><rect class="cls-1" x="145.58" y="208.31" width="26.92" height="11.7" rx="3.71"/><rect class="cls-1" x="10.08" y="237.84" width="17.17" height="8.78" rx="2.71"/><rect class="cls-1" x="33.13" y="237.84" width="12.71" height="8.78" rx="2.71"/><rect class="cls-1" x="51.73" y="237.84" width="12.71" height="8.78" rx="2.71"/><rect class="cls-1" x="88.92" y="237.84" width="12.71" height="8.78" rx="2.71"/><rect class="cls-1" x="107.51" y="237.84" width="12.71" height="8.78" rx="2.71"/><rect class="cls-1" x="126.11" y="237.84" width="12.71" height="8.78" rx="2.71"/><rect class="cls-1" x="70.32" y="237.84" width="12.71" height="8.78" rx="2.71"/><rect class="cls-1" x="145.58" y="236.38" width="26.92" height="11.7" rx="3.71"/><rect class="cls-1" x="10.08" y="224.32" width="17.17" height="8.78" rx="2.71"/><rect class="cls-1" x="33.13" y="224.32" width="12.71" height="8.78" rx="2.71"/><rect class="cls-1" x="51.73" y="224.32" width="12.71" height="8.78" rx="2.71"/><rect class="cls-1" x="88.92" y="224.32" width="12.71" height="8.78" rx="2.71"/><rect class="cls-1" x="107.51" y="224.32" width="12.71" height="8.78" rx="2.71"/><rect class="cls-1" x="126.11" y="224.32" width="12.71" height="8.78" rx="2.71"/><rect class="cls-1" x="70.32" y="224.32" width="12.71" height="8.78" rx="2.71"/><rect class="cls-1" x="145.02" y="224.32" width="12.71" height="8.78" rx="2.71"/><rect class="cls-1" x="163.61" y="224.32" width="12.71" height="8.78" rx="2.71"/><rect class="cls-1" x="49.66" y="249.8" width="73.16" height="9.67" rx="2.81"/><rect class="cls-1" x="125.93" y="251.56" width="11.89" height="7.92" rx="2.71"/><rect class="cls-1" x="143.34" y="251.56" width="11.89" height="7.92" rx="2.71"/><rect class="cls-1" x="160.74" y="251.56" width="11.89" height="7.92" rx="2.71"/><rect class="cls-1" x="16.04" y="251.56" width="11.89" height="7.92" rx="2.71"/><rect class="cls-1" x="33.44" y="251.56" width="11.89" height="7.92" rx="2.71"/><rect class="cls-1" x="213.56" y="202.73" width="38.39" height="62.05" rx="19.19"/><path class="cls-1" d="M236.77,211.56c-8.4.15-15.16,7.46-15.16,16.46v.12h15.24Z" transform="translate(-5.33 -6.13)"/><path class="cls-1" d="M239.41,211.57l.08,16.57h15.06V228C254.55,219.09,247.81,211.84,239.41,211.57Z" transform="translate(-5.33 -6.13)"/><rect class="cls-1" x="229.32" y="207.47" width="6.87" height="11.61" rx="2.39"/><rect class="cls-1" x="3.03" y="0.5" width="251.09" height="149.77" rx="9.69"/><rect class="cls-1" x="14.72" y="16.73" width="227.71" height="117.32" rx="2.83"/><path class="cls-1" d="M152.66,176.63V161.18H115.14v15.45a.46.46,0,0,1-.37.4c-9.64,2.86-17.86,7.81-23.66,14.1-.18.2,0,.46.33.46h84.92c.32,0,.51-.26.33-.46-5.8-6.29-14-11.24-23.66-14.1A.46.46,0,0,1,152.66,176.63Z" transform="translate(-5.33 -6.13)"/><path class="cls-2" d="M-27.08,142.63" transform="translate(-5.33 -6.13)"/></g><g id="website"><rect class="cls-3" x="18.58" y="19.62" width="222.05" height="111.48"/><rect class="cls-3" x="18.08" y="19.62" width="222.52" height="18.53"/><rect class="cls-3" x="138.26" y="22.88" width="23.74" height="10.18"/><rect class="cls-3" x="167.2" y="22.88" width="23.74" height="10.18"/><rect class="cls-3" x="196.77" y="22.88" width="23.74" height="10.18"/><rect class="cls-4" x="18.08" y="37.65" width="62.21" height="92.92"/><rect class="cls-3" x="74.26" y="37.99" width="6.27" height="93.37"/><rect class="cls-5" x="80.13" y="38.01" width="24.25" height="93.25"/><rect class="cls-6" x="110.37" y="42.77" width="122.35" height="80.67"/><rect class="cls-3" x="18.56" y="38.06" width="55.93" height="18.56"/><rect class="cls-3" x="25.37" y="49.98" width="24.71" height="3.93"/><rect class="cls-3" x="18.6" y="56.64" width="55.93" height="18.56"/><rect class="cls-3" x="25.1" y="68.64" width="24.71" height="3.93"/><rect class="cls-3" x="18.57" y="75.18" width="55.93" height="18.56"/><rect class="cls-3" x="25.1" y="87.1" width="24.71" height="3.93"/><rect class="cls-3" x="18.6" y="93.64" width="55.93" height="18.56"/><rect class="cls-3" x="25.61" y="105.56" width="24.71" height="3.93"/><rect class="cls-3" x="18.6" y="112.09" width="55.93" height="19.03"/><rect class="cls-3" x="25.61" y="124.22" width="24.71" height="3.93"/><ellipse class="cls-3" cx="137.06" cy="64.62" rx="12.41" ry="12.18"/><ellipse class="cls-3" cx="169.83" cy="64.38" rx="12.41" ry="12.18"/><ellipse class="cls-3" cx="204.22" cy="63.42" rx="12.41" ry="12.18"/><path class="cls-3" d="M234,107.87c-3.57-21.54-16.48-23.23-24.4-22.89h-.12a12.2,12.2,0,0,0-10.29,5,8.51,8.51,0,0,1-5.65,3.82,7.15,7.15,0,0,1-2.79-.09,6.22,6.22,0,0,1-3.58-2.6c-2.23-3.08-7.4-5.2-12-5.2h-.13c-4.83,0-9,2.39-10.73,5.78a5.77,5.77,0,0,1-4,3.11l-.27,0a6.5,6.5,0,0,1-7-3c-1.8-3.33-5.89-5.66-10.67-5.66h-.12c-5.71-.65-21.4,1.74-25,23.27a4.62,4.62,0,0,0,3.29,5.19l.12,0a4.6,4.6,0,0,0,5.88-3.84,18.33,18.33,0,0,1,3-8.29.57.57,0,0,1,1,.33c0,6.11-.05,25.6-.05,25.6h9.93v-5.8a1.82,1.82,0,0,1,1.82-1.82h0a1.82,1.82,0,0,1,1.83,1.82v5.73h9.93V105.9a20.22,20.22,0,0,0,3.36.28,24.81,24.81,0,0,0,5.95-.78l0,22.84h9.94v-5.8a1.81,1.81,0,0,1,1.82-1.82h1.61a1.82,1.82,0,0,1,1.82,1.82l-.13,5.81h9.94l.12-7.63V104.56a20.6,20.6,0,0,0,4.1.42c2.36,0,3.06-.4,5.22-1l-.05,24.68h9.93v-7.17a1.82,1.82,0,0,1,1.82-1.82h0a1.82,1.82,0,0,1,1.83,1.82v7.11h9.93V102.17a.58.58,0,0,1,1.07-.29,19,19,0,0,1,2.38,7.43,4.66,4.66,0,0,0,6,3.74h0A4.61,4.61,0,0,0,234,107.87Z" transform="translate(-5.33 -6.13)"/><rect class="cls-3" x="85.22" y="41.76" width="13.24" height="14.68"/><rect class="cls-3" x="85.22" y="89.98" width="13.24" height="14.68"/><rect class="cls-3" x="85.22" y="114.09" width="13.24" height="14.68"/><rect class="cls-3" x="85.22" y="65.87" width="13.24" height="14.68"/></g></svg>